<?xml version="1.0" standalone="no"?>
<!DOCTYPE svg PUBLIC "-//W3C//DTD SVG 20010904//EN"
 "http://www.w3.org/TR/2001/REC-SVG-20010904/DTD/svg10.dtd">
<svg version="1.0" xmlns="http://www.w3.org/2000/svg"
 width="168.000000pt" height="168.000000pt" viewBox="0 0 168.000000 168.000000"
 preserveAspectRatio="xMidYMid meet">
<metadata>
Created by potrace 1.11, written by Peter Selinger 2001-2013
</metadata>
<g transform="translate(0.000000,168.000000) scale(0.100000,-0.100000)"
fill="#000000" stroke="none">
<path d="M1347 1468 c-13 -18 -40 -60 -59 -93 -20 -33 -95 -160 -167 -283
l-132 -223 -91 153 c-50 84 -100 163 -111 176 -19 21 -29 22 -144 22 -107 0
-123 -2 -123 -16 0 -19 402 -697 433 -732 26 -28 58 -28 84 1 30 33 549 929
557 962 5 19 2 33 -10 46 -15 16 -32 19 -115 19 l-98 0 -24 -32z"/>
<path d="M90 1470 c-11 -11 -20 -32 -20 -47 0 -35 687 -1189 723 -1217 41 -30
66 -15 121 70 44 67 48 79 39 102 -5 15 -125 219 -266 455 l-255 427 356 0
c196 0 362 4 368 8 6 4 37 49 68 100 47 76 55 96 46 107 -11 13 -96 15 -586
15 -561 0 -574 0 -594 -20z"/>
</g>
</svg>
